<svg data-v-0dd9719b="" version="1.0" xmlns="http://www.w3.org/2000/svg" xmlns:xlink="http://www.w3.org/1999/xlink" width="100%" height="100%" viewBox="0 0 340.000000 250.000000" preserveAspectRatio="xMidYMid meet" color-interpolation-filters="sRGB" style="margin: auto;"> <rect data-v-0dd9719b="" x="0" y="0" width="100%" height="100%" fill="#fff" fill-opacity="1" class="background"></rect> <rect data-v-0dd9719b="" x="0" y="0" width="100%" height="100%" fill="url(#watermark)" fill-opacity="1" class="watermarklayer"></rect> <g data-v-0dd9719b="" fill="#333" class="icon-text-wrapper icon-svg-group iconsvg" transform="translate(44.719993591465574,96.8177547454834)"><g class="iconsvg-imagesvg" transform="translate(0,0)"><g><rect fill="#333" fill-opacity="0" stroke-width="2" x="0" y="0" width="60" height="56.364490371066225" class="image-rect"></rect> <svg x="0" y="0" width="60" height="56.364490371066225" filtersec="colorsb9982667017" class="image-svg-svg primary" style="overflow: visible;"><svg xmlns="http://www.w3.org/2000/svg" viewBox="-0.0033815805800259113 0 88.99242401123047 83.60000610351562"><title>资源 8</title><path d="M53.4 56.89c-.27-.19-.55-.36-.83-.53l-.19-.11a14.75 14.75 0 0 0-7.44-2c-.47 0-.93 0-1.39.07l-6.33 11.27 25.72 15.3a2.5 2.5 0 0 1 .5.23 15 15 0 0 0 8.26 2.48A15.34 15.34 0 0 0 85 75.67L53.42 56.86z" fill="#1b75bb"></path><path d="M53.42 56.86c-.27-.19-.55-.36-.83-.53l-.19-.11a14.75 14.75 0 0 0-7.44-2c-.47 0-.93 0-1.39.07l-6.35 11.3 9 5.38 15.49-9.17z" fill="#1b6698"></path><path d="M4.84 75.67a15.35 15.35 0 0 0 13.33 7.93 15 15 0 0 0 8.27-2.48 2.19 2.19 0 0 1 .49-.23L60.36 61l-7-4.12a14.78 14.78 0 0 0-15.76-.73l-.1.06c-.28.16-.56.33-.83.52l-.14.06L4.84 75.67z" fill="#00bad3"></path><path d="M33.66 52.71l.87-.47.19-.12a15.26 15.26 0 0 0 5.41-5.63c.23-.41.44-.84.63-1.27l-6.32-11.29L8.72 49.22a2.09 2.09 0 0 1-.45.33 15.59 15.59 0 0 0-6.21 6.14 16.27 16.27 0 0 0 0 15.86l31.62-18.81z" fill="#009345"></path><path d="M25.36 39.32v18.37l8.33-4.95.87-.47.19-.12a15.26 15.26 0 0 0 5.41-5.63c.23-.41.44-.84.63-1.27l-6.35-11.32z" fill="#146d3f"></path><path d="M42.15 0a15.35 15.35 0 0 0-13.33 7.93 16.21 16.21 0 0 0-2.05 8.61 2.09 2.09 0 0 1-.05.56v39.76l6.94-4.15a15.23 15.23 0 0 0 6.47-6.22 15.77 15.77 0 0 0 2-7.47v-.12-1a.92.92 0 0 1 0-.16V0z" fill="#66bb46"></path><path d="M46.87 37.62v1.23a15.75 15.75 0 0 0 2 7.64 13.67 13.67 0 0 0 .76 1.21h12.64V17.1a2.6 2.6 0 0 1-.06-.56 16.21 16.21 0 0 0-2.05-8.61A15.34 15.34 0 0 0 46.83 0v37.61z" fill="#dc6e26"></path><path d="M62.27 36.94l-15.44-9.2v11.1a15.75 15.75 0 0 0 2 7.64 13.67 13.67 0 0 0 .76 1.21h12.68z" fill="#af5126"></path><path d="M86.93 71.55a16.3 16.3 0 0 0 0-15.86 15.59 15.59 0 0 0-6.21-6.14 2.24 2.24 0 0 1-.44-.32L46.85 29.35v8.27a15.8 15.8 0 0 0 2 8.87A15.3 15.3 0 0 0 54.13 52l.1.06c.28.17.56.33.85.48l.12.1 31.73 18.91z" fill="#f58a2f"></path></svg></svg> <!----></g></g> <g transform="translate(67,5.797245025634766)"><g data-gra="path-name" fill-rule="" class="tp-name iconsvg-namesvg"><g transform="scale(1)"><g><path d="M26.85 6.43Q24.89 6.43 21.96 3.11 19.04-0.21 16.11-4.89 13.19-9.57 11.11-13.77L11.11-13.77Q10.16-10.48 7.92-2.5L7.92-2.5 5.9 4.68Q4.25 4.68 2.95 3.8 1.65 2.92 1.65 1.6L1.65 1.6Q1.65 0.96 1.97-0.05 2.29-1.06 2.39-1.33L2.39-1.33Q6.49-13.77 8.8-20.02 11.11-26.27 15.42-36.11L15.42-36.11Q12.55-35.52 9.36-33.82L9.36-33.82Q9.04-33.71 8.56-33.47 8.08-33.23 7.87-33.23L7.87-33.23Q7.39-33.23 6.57-33.98 5.74-34.72 5.74-35.31L5.74-35.31Q8.93-36.58 12.07-37.44 15.21-38.29 18.56-38.29L18.56-38.29Q22.07-38.29 25.39-37.2 28.71-36.11 30.9-33.79 33.08-31.48 33.08-28.02L33.08-28.02Q33.08-23.45 29.43-20.9 25.79-18.35 21.24-17.44 16.7-16.54 12.92-16.43L12.92-16.43 14.3-14.25Q16.86-10.16 18.77-7.44 20.69-4.73 23.48-1.78 26.27 1.17 30.1 4.09L30.1 4.09Q29.88 5.1 28.85 5.77 27.81 6.43 26.85 6.43L26.85 6.43ZM12.34-18.03Q19.09-18.51 23.88-21.3 28.66-24.09 28.66-29.09L28.66-29.09Q28.66-32.86 25.95-34.59 23.24-36.32 19.14-36.43L19.14-36.43Q16.17-30.47 12.34-18.03L12.34-18.03ZM42.54 4.63Q39.24 4.63 36.64 3.3 34.03 1.97 32.62-0.32 31.21-2.61 31.21-5.37L31.21-5.37Q31.21-8.51 33-11.46 34.78-14.41 37.86-16.48 40.95-18.56 44.77-19.09L44.77-19.09Q42.91-20.74 41.93-22.81 40.95-24.89 40.95-27.12L40.95-27.12Q40.95-29.94 42.41-32.52 43.87-35.1 46.5-36.66 49.13-38.23 52.48-38.23L52.48-38.23Q55.73-38.23 57.48-36.66 59.24-35.1 59.24-32.12L59.24-32.12Q59.24-30.15 58.52-28.24 57.8-26.32 56.71-25.13 55.62-23.93 54.66-23.93L54.66-23.93Q53.34-23.93 52.11-26.11L52.11-26.11Q56.79-29.94 56.79-33.23L56.79-33.23Q56.79-34.78 55.75-35.63 54.72-36.48 52.96-36.48L52.96-36.48Q50.68-36.48 49.03-35.07 47.38-33.66 46.53-31.4 45.68-29.14 45.68-26.64L45.68-26.64Q45.68-24.14 46.61-21.88 47.54-19.62 49.61-18.03L49.61-18.03Q45.89-17.44 43.05-15.45 40.2-13.45 38.63-10.71 37.06-7.98 37.06-5.26L37.06-5.26Q37.06-3.46 37.78-1.75 38.5-0.05 40.04 1.09 41.58 2.23 43.98 2.23L43.98 2.23Q46.79 2.23 49.64 0.64 52.48-0.96 54.88-3.62 57.27-6.27 58.71-9.31L58.71-9.31 60.14-8.4Q57-2.5 52.48 1.06 47.96 4.63 42.54 4.63L42.54 4.63ZM71.42 4.63Q68.12 4.63 65.51 3.3 62.91 1.97 61.5-0.32 60.09-2.61 60.09-5.37L60.09-5.37Q60.09-8.51 61.87-11.46 63.65-14.41 66.74-16.48 69.82-18.56 73.65-19.09L73.65-19.09Q71.79-20.74 70.8-22.81 69.82-24.89 69.82-27.12L69.82-27.12Q69.82-29.94 71.28-32.52 72.74-35.1 75.38-36.66 78.01-38.23 81.36-38.23L81.36-38.23Q84.6-38.23 86.36-36.66 88.11-35.1 88.11-32.12L88.11-32.12Q88.11-30.15 87.39-28.24 86.68-26.32 85.59-25.13 84.5-23.93 83.54-23.93L83.54-23.93Q82.21-23.93 80.99-26.11L80.99-26.11Q85.67-29.94 85.67-33.23L85.67-33.23Q85.67-34.78 84.63-35.63 83.59-36.48 81.84-36.48L81.84-36.48Q79.55-36.48 77.9-35.07 76.25-33.66 75.4-31.4 74.55-29.14 74.55-26.64L74.55-26.64Q74.55-24.14 75.48-21.88 76.41-19.62 78.49-18.03L78.49-18.03Q74.77-17.44 71.92-15.45 69.08-13.45 67.51-10.71 65.94-7.98 65.94-5.26L65.94-5.26Q65.94-3.46 66.66-1.75 67.37-0.05 68.92 1.09 70.46 2.23 72.85 2.23L72.85 2.23Q75.67 2.23 78.51 0.64 81.36-0.96 83.75-3.62 86.14-6.27 87.58-9.31L87.58-9.31 89.02-8.4Q85.88-2.5 81.36 1.06 76.84 4.63 71.42 4.63L71.42 4.63ZM101.94 4.63Q98.06 4.63 95.45 2.77 92.84 0.9 91.6-2.07 90.35-5.05 90.35-8.51L90.35-8.51Q90.35-15.37 93.72-22.31 97.1-29.25 102.36-33.74 107.63-38.23 112.95-38.23L112.95-38.23Q115.44-38.23 116.96-37.06 118.48-35.89 118.48-33.39L118.48-33.39Q118.48-31.27 117.49-28.5 116.51-25.74 114.99-23.8 113.48-21.86 111.94-21.86L111.94-21.86Q110.61-21.86 109.75-23.5L109.75-23.5Q111.78-25.74 113.66-28.82 115.55-31.91 115.55-33.82L115.55-33.82Q115.55-35.89 113.16-35.89L113.16-35.89Q109.44-35.89 105.26-31.37 101.09-26.85 98.3-20.26 95.5-13.67 95.5-8.03L95.5-8.03Q95.5-3.78 97.42-0.85 99.33 2.07 103.21 2.07L103.21 2.07Q105.98 2.07 108.85 0.51 111.72-1.06 114.12-3.67 116.51-6.27 117.94-9.31L117.94-9.31 119.33-8.4Q116.3-2.66 111.8 0.98 107.31 4.63 101.94 4.63L101.94 4.63ZM122.36 4.63Q123 0.58 124.17-3.94 125.34-8.45 127.89-16.27L127.89-16.27Q124.96-16.01 124.43-15.95L124.43-15.95Q124.43-17.55 125.63-18.48 126.82-19.41 129.06-19.89L129.06-19.89Q129.32-20.79 129.75-21.86L129.75-21.86 133.47-32.76Q133.52-32.86 133.82-33.69 134.11-34.51 134.11-35.31L134.11-35.31Q134.11-35.73 133.95-35.89 133.79-36.05 133.42-36.05L133.42-36.05Q132.04-36.05 130.63-34.48 129.22-32.92 128.26-30.71 127.3-28.5 127.3-26.85L127.3-26.85Q127.3-26 127.83-24.46L127.83-24.46Q125.71-24.46 124.67-25.39 123.63-26.32 123.63-27.97L123.63-27.97Q123.63-30.26 125.47-32.68 127.3-35.1 129.96-36.69 132.62-38.29 134.8-38.29L134.8-38.29Q136.4-38.29 137.09-37.46 137.78-36.64 137.78-35.36L137.78-35.36Q137.78-34.46 137.35-33.08L137.35-33.08 133.47-20.31Q134.32-20.37 136.13-20.37L136.13-20.37Q140.92-20.37 145.44-19.94L145.44-19.94Q148.63-30.68 150.65-35.36L150.65-35.36Q151.18-36.53 152-37.44 152.83-38.34 154.48-38.34L154.48-38.34Q153.36-35.31 151.74-29.96 150.12-24.62 148.89-19.68L148.89-19.68 150.75-19.62Q152.56-19.52 153.52-19.52L153.52-19.52Q152.03-18.03 150.81-17.55 149.58-17.07 148.25-17.07L148.25-17.07Q146.71-10.53 145.94-5.69 145.17-0.85 145.17 1.81L145.17 1.81Q145.17 3.19 145.44 4.63L145.44 4.63Q142.72 4.36 141.74 3.32 140.76 2.29 140.76-0.32L140.76-0.32Q140.76-2.71 141.58-6.46 142.4-10.21 144.58-17.02L144.58-17.02Q140.38-17.02 137.49-16.94 134.59-16.86 132.3-16.64L132.3-16.64Q132.19-16.32 131.29-13.29 130.39-10.26 126.82 1.01L126.82 1.01Q126.29 2.77 124.94 3.7 123.58 4.63 122.36 4.63L122.36 4.63ZM152.3 4.68Q152.56 1.6 154.87 0.64 157.19-0.32 161.44-0.32L161.44-0.32Q162.98-3.62 164.31-8.67 165.64-13.72 167.61-22.49L167.61-22.49Q167.82-23.4 168.81-27.81 169.79-32.22 170.59-34.51L170.59-34.51Q166.76-34.46 163.97-34.14 161.18-33.82 157.99-33.23L157.99-33.23Q158.52-35.89 161.31-37.06 164.1-38.23 169.79-38.23L169.79-38.23Q176.17-38.23 185.21-37.06L185.21-37.06Q183.62-35.52 182.1-35.04 180.58-34.56 179.04-34.56L179.04-34.56Q175-34.56 173.3-34.51L173.3-34.51 172.98-32.92 171.65-25.52Q170.85-20.95 169.92-16.06 168.99-11.17 168.35-8.72L168.35-8.72Q166.76-2.34 164.53-0.21L164.53-0.21Q167.18 0 168.57 0.16L168.57 0.16Q173.46 0.69 176.54 0.74L176.54 0.74Q173.41 3.72 169.36 3.72L169.36 3.72Q161.97 3.72 159.08 3.88 156.18 4.04 152.3 4.68L152.3 4.68Z" transform="translate(-1.6500000953674316, 38.34000015258789)"></path></g> <!----> <!----> <!----> <!----> <!----> <!----> <!----></g></g> <!----></g></g><defs v-gra="od"></defs></svg>